<?xml version="1.0" standalone="no"?>
<!DOCTYPE svg PUBLIC "-//W3C//DTD SVG 20010904//EN"
 "http://www.w3.org/TR/2001/REC-SVG-20010904/DTD/svg10.dtd">
<svg version="1.0" xmlns="http://www.w3.org/2000/svg"
 width="256.000000pt" height="256.000000pt" viewBox="0 0 256.000000 256.000000"
 preserveAspectRatio="xMidYMid meet">
<metadata>
Created by potrace 1.14, written by Peter Selinger 2001-2017
</metadata>
<g transform="translate(0.000000,256.000000) scale(0.100000,-0.100000)"
fill="#000000" stroke="none">
<path d="M1149 2506 c-2 -2 -26 -7 -54 -10 -66 -9 -162 -33 -202 -52 -17 -7
-34 -14 -38 -14 -4 0 -36 -14 -72 -30 -230 -107 -442 -320 -543 -545 -17 -39
-35 -77 -40 -86 -9 -18 -47 -168 -57 -225 -9 -54 -9 -299 0 -354 10 -54 44
-187 56 -215 85 -196 149 -293 280 -423 155 -153 376 -266 601 -307 73 -14
295 -13 375 1 236 41 461 156 615 314 79 81 120 127 120 135 0 3 11 21 25 39
14 18 25 38 25 44 0 7 5 12 10 12 6 0 10 7 10 15 0 8 5 15 10 15 6 0 9 3 8 8
-1 4 13 38 30 75 18 38 32 74 32 81 0 7 4 16 9 22 8 9 29 91 50 199 10 53 8
296 -4 355 -46 237 -152 445 -308 602 -76 76 -133 128 -142 128 -3 0 -26 15
-52 34 -103 72 -275 141 -431 169 -64 13 -304 22 -313 13z"/>
</g>
</svg>
